<svg width="48" height="48" viewBox="0 0 48 48" fill="none" xmlns="http://www.w3.org/2000/svg">
<path d="M18.0186 16.3323L24 22.3135L29.9568 16.3569C30.0612 16.2458 30.1869 16.1569 30.3265 16.0956C30.4661 16.0342 30.6166 16.0017 30.7691 16C31.0955 16 31.4085 16.1297 31.6393 16.3605C31.8701 16.5913 31.9998 16.9043 31.9998 17.2307C32.0027 17.3816 31.9747 17.5315 31.9175 17.6711C31.8604 17.8108 31.7753 17.9373 31.6675 18.043L25.6492 23.9995L31.6675 30.0176C31.8703 30.216 31.9893 30.4848 31.9998 30.7683C31.9998 31.0947 31.8701 31.4078 31.6393 31.6386C31.4085 31.8694 31.0955 31.999 30.7691 31.999C30.6122 32.0055 30.4557 31.9794 30.3095 31.9222C30.1633 31.8649 30.0306 31.778 29.9199 31.6667L24 25.6856L18.0309 31.6544C17.9269 31.7618 17.8027 31.8476 17.6654 31.9067C17.5281 31.9659 17.3804 31.9972 17.2309 31.999C16.9045 31.999 16.5915 31.8694 16.3607 31.6386C16.1299 31.4078 16.0002 31.0947 16.0002 30.7683C15.9973 30.6174 16.0253 30.4676 16.0825 30.3279C16.1396 30.1882 16.2247 30.0617 16.3325 29.9561L22.3508 23.9995L16.3325 17.9814C16.1297 17.783 16.0107 17.5143 16.0002 17.2307C16.0002 16.9043 16.1299 16.5913 16.3607 16.3605C16.5915 16.1297 16.9045 16 17.2309 16C17.5263 16.0037 17.8094 16.1231 18.0186 16.3323Z" fill="#333333"/>
</svg>
