<svg width="326" height="40" viewBox="0 0 326 40" fill="none" xmlns="http://www.w3.org/2000/svg">
<rect width="326" height="40" rx="5" fill="#44444F" fill-opacity="0.1"/>
<path d="M299.074 18.1798V22.9843C299.074 23.4979 299.28 23.9905 299.646 24.3536C300.013 24.7168 300.51 24.9208 301.029 24.9208H308.851C309.369 24.9208 309.866 24.7168 310.233 24.3536C310.6 23.9905 310.806 23.4979 310.806 22.9843V17.1748C310.806 16.6612 310.6 16.1686 310.233 15.8055C309.866 15.4423 309.369 15.2383 308.851 15.2383H301.029C300.51 15.2383 300.013 15.4423 299.646 15.8055C299.28 16.1686 299.074 16.6612 299.074 17.1748V18.1798ZM301.029 16.2065H308.851C309.11 16.2065 309.359 16.3085 309.542 16.4901C309.725 16.6717 309.828 16.918 309.828 17.1748V17.8913L304.94 20.4978L300.051 17.8913V17.1748C300.051 16.918 300.154 16.6717 300.338 16.4901C300.521 16.3085 300.77 16.2065 301.029 16.2065ZM300.051 18.9912L304.708 21.4738C304.779 21.5118 304.859 21.5317 304.94 21.5317C305.021 21.5317 305.1 21.5118 305.172 21.4738L309.828 18.9912V22.9843C309.828 23.2411 309.725 23.4874 309.542 23.669C309.359 23.8506 309.11 23.9526 308.851 23.9526H301.029C300.77 23.9526 300.521 23.8506 300.338 23.669C300.154 23.4874 300.051 23.2411 300.051 22.9843V18.9912Z" fill="#333333"/>
</svg>
