<svg width="326" height="40" viewBox="0 0 326 40" fill="none" xmlns="http://www.w3.org/2000/svg">
<rect width="326" height="40" rx="5" fill="#44444F" fill-opacity="0.1"/>
<path d="M304.844 19.9999C305.609 19.9999 306.343 19.6989 306.884 19.1631C307.425 18.6273 307.729 17.9005 307.729 17.1428C307.729 16.385 307.425 15.6583 306.884 15.1225C306.343 14.5867 305.609 14.2856 304.844 14.2856C304.078 14.2856 303.345 14.5867 302.804 15.1225C302.263 15.6583 301.959 16.385 301.959 17.1428C301.959 17.9005 302.263 18.6273 302.804 19.1631C303.345 19.6989 304.078 19.9999 304.844 19.9999ZM306.767 17.1428C306.767 17.648 306.564 18.1324 306.204 18.4897C305.843 18.8469 305.354 19.0475 304.844 19.0475C304.334 19.0475 303.844 18.8469 303.484 18.4897C303.123 18.1324 302.92 17.648 302.92 17.1428C302.92 16.6376 303.123 16.1531 303.484 15.7959C303.844 15.4387 304.334 15.238 304.844 15.238C305.354 15.238 305.843 15.4387 306.204 15.7959C306.564 16.1531 306.767 16.6376 306.767 17.1428ZM310.614 24.7618C310.614 25.7142 309.652 25.7142 309.652 25.7142H300.035C300.035 25.7142 299.074 25.7142 299.074 24.7618C299.074 23.8095 300.035 20.9523 304.844 20.9523C309.652 20.9523 310.614 23.8095 310.614 24.7618ZM309.652 24.758C309.651 24.5237 309.504 23.819 308.852 23.1733C308.225 22.5523 307.045 21.9047 304.844 21.9047C302.641 21.9047 301.462 22.5523 300.835 23.1733C300.183 23.819 300.037 24.5237 300.035 24.758H309.652Z" fill="#333333"/>
</svg>
