<svg width="326" height="40" viewBox="0 0 326 40" fill="none" xmlns="http://www.w3.org/2000/svg">
<rect width="326" height="40" rx="5" fill="#44444F" fill-opacity="0.1"/>
<path d="M303.487 13.9551L302.936 14.1197C302.445 14.2662 302.006 14.5488 301.672 14.934C301.337 15.3192 301.121 15.7911 301.048 16.2941C300.819 17.8698 301.33 19.712 302.562 21.8248C303.79 23.9322 305.143 25.29 306.632 25.8842C307.11 26.0752 307.633 26.126 308.14 26.0308C308.647 25.9356 309.115 25.6983 309.49 25.3471L309.907 24.9555C310.178 24.7016 310.346 24.359 310.381 23.9915C310.416 23.6239 310.315 23.2563 310.097 22.957L309.053 21.5246C308.912 21.3312 308.714 21.1864 308.485 21.1105C308.257 21.0345 308.01 21.0312 307.78 21.101L306.202 21.5787L306.161 21.5863C305.988 21.6115 305.587 21.2389 305.087 20.381C304.564 19.4835 304.454 18.9585 304.599 18.8229L305.402 18.0816C305.695 17.8106 305.896 17.4555 305.975 17.0661C306.054 16.6766 306.008 16.2724 305.844 15.9101L305.336 14.7894C305.183 14.4518 304.911 14.1809 304.571 14.0274C304.231 13.8739 303.846 13.8482 303.488 13.9551H303.487ZM304.634 15.1018L305.142 16.2225C305.241 16.4398 305.269 16.6824 305.221 16.9161C305.174 17.1498 305.054 17.3628 304.877 17.5254L304.073 18.2675C303.557 18.7498 303.728 19.5749 304.42 20.762C305.071 21.8789 305.665 22.4305 306.303 22.3345L306.398 22.3147L308.005 21.8294C308.082 21.806 308.164 21.8071 308.24 21.8323C308.316 21.8576 308.382 21.9059 308.429 21.9703L309.473 23.4027C309.582 23.5524 309.632 23.7363 309.615 23.9201C309.598 24.104 309.513 24.2754 309.378 24.4023L308.96 24.794C308.693 25.0446 308.358 25.214 307.996 25.2819C307.635 25.3499 307.261 25.3135 306.919 25.1772C305.613 24.656 304.378 23.4164 303.228 21.4439C302.076 19.4667 301.609 17.7852 301.809 16.4023C301.861 16.0429 302.016 15.7058 302.255 15.4305C302.494 15.1553 302.808 14.9535 303.159 14.8488L303.71 14.6842C303.889 14.631 304.082 14.644 304.251 14.7209C304.421 14.7977 304.557 14.9331 304.634 15.1018Z" fill="#333333"/>
</svg>
