<svg width="16" height="17" viewBox="0 0 16 17" fill="none" xmlns="http://www.w3.org/2000/svg">
<g clip-path="url(#clip0_1_110)">
<path d="M12.7812 2.78906H2.21876C1.54669 2.78906 1 3.36992 1 4.08399V11.8535C1 12.5676 1.54669 13.1485 2.21876 13.1485H12.7812C13.4533 13.1485 14 12.5676 14 11.8535V4.08399C14 3.36992 13.4533 2.78906 12.7812 2.78906ZM12.7812 3.65234C12.8364 3.65234 12.8889 3.66451 12.937 3.68576L7.5 8.69251L2.06302 3.68576C2.11103 3.66454 2.16354 3.65234 2.21873 3.65234H12.7812ZM12.7812 12.2851H2.21876C1.99461 12.2851 1.8125 12.0917 1.8125 11.8535V4.59782L7.23379 9.58993C7.31037 9.66031 7.40518 9.69531 7.5 9.69531C7.59482 9.69531 7.68963 9.66034 7.76621 9.58993L13.1875 4.59782V11.8535C13.1875 12.0917 13.0054 12.2851 12.7812 12.2851Z" fill="#00E5A1"/>
</g>
<defs>
<clipPath id="clip0_1_110">
<rect width="13" height="13.8125" fill="white" transform="translate(1 1.0625)"/>
</clipPath>
</defs>
</svg>
